<?xml version="1.0" encoding="UTF-8" standalone="no"?>
<!-- Created with Inkscape (http://www.inkscape.org/) -->

<svg
   width="256"
   height="256"
   viewBox="0 0 256 256"
   version="1.1"
   id="svg1"
   xml:space="preserve"
   inkscape:version="1.4.2 (ebf0e940d0, 2025-05-08)"
   sodipodi:docname="main.svg"
   inkscape:export-filename="transparent-window-icon.png"
   inkscape:export-xdpi="96"
   inkscape:export-ydpi="96"
   xmlns:inkscape="http://www.inkscape.org/namespaces/inkscape"
   xmlns:sodipodi="http://sodipodi.sourceforge.net/DTD/sodipodi-0.dtd"
   xmlns="http://www.w3.org/2000/svg"
   xmlns:svg="http://www.w3.org/2000/svg"><sodipodi:namedview
     id="namedview1"
     pagecolor="#ffffff"
     bordercolor="#000000"
     borderopacity="0.25"
     inkscape:showpageshadow="2"
     inkscape:pageopacity="0.0"
     inkscape:pagecheckerboard="0"
     inkscape:deskcolor="#d1d1d1"
     inkscape:document-units="mm"
     inkscape:zoom="1.4253648"
     inkscape:cx="1.0523622"
     inkscape:cy="98.571257"
     inkscape:window-width="1920"
     inkscape:window-height="1080"
     inkscape:window-x="0"
     inkscape:window-y="0"
     inkscape:window-maximized="1"
     inkscape:current-layer="layer2" /><defs
     id="defs1"><clipPath
       clipPathUnits="userSpaceOnUse"
       id="clipPath2"><rect
         style="fill:#ff6000;fill-opacity:1"
         id="rect3"
         width="207"
         height="203.39621"
         x="31.689627"
         y="287.34048" /></clipPath></defs><g
     inkscape:label="Layer 1"
     inkscape:groupmode="layer"
     id="layer1"
     transform="translate(-31.689627,-287.34048)"><path
       style="display:none;fill:#ff6000;fill-opacity:1;stroke-width:1.05792"
       d="m 152.47016,518.54807 c 8.3502,-2.79275 11.41729,-5.23579 11.41729,-9.09415 0,-7.27171 -8.66539,-9.88327 -11.63712,-3.50719 -2.13121,4.57276 -7.76095,6.75782 -19.16192,7.43724 -6.37593,0.37998 -11.45814,0.0187 -16.92668,-1.20653 -10.18417,-2.27998 -11.71815,-3.36358 -4.76163,-3.36358 9.42924,0 14.49349,-5.63408 9.29388,-10.33962 -2.58065,-2.33547 -5.37582,-2.20885 -8.11846,0.36781 l -2.25514,2.11855 -7.76809,-2.64208 c -9.093659,-3.09297 -17.540868,-7.65576 -24.75888,-13.37363 -5.718281,-4.52986 -5.48475,-4.81141 2.085915,-2.51478 2.856264,0.86647 5.411372,1.58058 5.677988,1.58689 0.266616,0.007 -1.453095,-2.01183 -3.821571,-4.48471 -6.483514,-6.76936 -12.910192,-15.37721 -15.929973,-21.33645 -2.744577,-5.41615 -6.898222,-16.59076 -6.365028,-17.12392 0.160941,-0.16094 1.703804,2.4165 3.428555,5.72765 4.167574,8.0008 17.29203,21.07667 25.377029,25.28315 3.491102,1.81635 9.56091,4.33636 13.488455,5.60002 6.75308,2.17274 9.9049,3.90466 4.76063,2.61598 -2.94805,-0.73854 -6.649421,1.78576 -5.81332,3.96458 1.10751,2.88618 14.00997,5.58367 26.7072,5.58367 6.40038,0 13.54132,-0.39911 15.86876,-0.88697 l 4.23166,-0.88696 -2.50874,2.67874 c -1.37979,1.4733 -4.11716,3.44196 -6.08302,4.37482 -3.81638,1.81101 -4.87893,5.39431 -1.93458,6.52414 2.35231,0.90265 18.44158,-5.13893 27.82501,-10.44844 4.4023,-2.49099 10.80964,-7.31491 14.23853,-10.71979 l 6.23433,-6.19076 -0.76934,3.54596 c -0.42315,1.95025 -1.74417,5.24916 -2.93561,7.33086 -1.20795,2.11048 -1.86598,4.56761 -1.48745,5.55409 1.37117,3.5731 5.3185,1.92374 11.92658,-4.98345 6.7427,-7.04788 13.65059,-19.5388 16.32086,-29.51148 0.74447,-2.78049 1.58898,-4.82007 1.87662,-4.53239 0.28753,0.28752 0.6311,4.39737 0.76322,9.13275 0.22666,8.12675 1.09335,10.42876 3.94871,10.48914 1.63805,0.0336 4.09502,-6.67096 4.95566,-13.52505 1.17188,-9.3329 -0.27109,-18.2732 -4.08598,-25.31672 -3.19696,-5.90256 -3.08524,-5.93236 3.85809,-1.02931 5.00648,3.53535 7.72992,3.23169 7.72992,-0.86191 0,-6.13967 -5.74677,-12.0559 -21.30937,-21.93772 -3.92236,-2.49058 -7.3179,-5.82182 -9.90113,-9.7136 -11.06337,-16.66768 -28.9244,-28.83471 -37.79207,-25.74416 l -2.8827,1.00467 2.08927,4.09528 c 3.84159,7.53015 2.76101,10.70478 -4.8728,14.31612 -7.39968,3.50062 -13.26545,10.30351 -19.00121,22.03678 -5.2806,10.80228 -7.34575,12.26699 -17.26835,12.24761 -6.84475,-0.0149 -13.90014,-1.01837 -13.88692,-1.97815 0.004,-0.36034 2.86952,-1.54678 6.36566,-2.63674 3.49615,-1.08998 6.64748,-2.45238 7.00297,-3.02758 0.86299,-1.39634 -1.64234,-2.8858 -4.91432,-2.92161 -2.30933,-0.0261 -2.05892,-0.3637 1.97437,-2.66956 5.84845,-3.3433 12.83648,-8.85132 12.83648,-10.11782 0,-0.53297 -1.44559,-0.969 -3.21246,-0.969 -3.16545,0 -3.10884,-0.0967 3.86765,-6.612 l 7.0801,-6.612 -4.66106,-0.52894 -4.66112,-0.52898 3.31691,-2.00775 c 3.99061,-2.41561 6.7319,-7.74714 6.73727,-13.10347 0.002,-2.1622 0.97995,-5.53218 2.17285,-7.48884 1.1929,-1.95665 1.98618,-3.74026 1.76284,-3.96359 -1.90578,-1.90578 -21.55657,8.43675 -22.70351,11.94921 -0.22516,0.68988 0.83996,1.909 2.36714,2.70918 l 2.77672,1.45485 -2.97575,1.35907 c -1.63663,0.7475 -5.47504,1.61822 -8.52977,1.93498 -3.05473,0.31666 -5.55409,0.91161 -5.55409,1.32188 0,1.15396 3.72064,4.24763 5.10842,4.24763 0.68151,0 1.23909,0.43357 1.23909,0.96352 0,1.58957 -9.37752,5.62769 -14.377694,6.19128 -2.565638,0.28902 -4.66481,0.82968 -4.66481,1.20107 0,0.37155 1.309145,1.47214 2.909252,2.446 l 2.909288,1.77072 -3.933221,1.64809 c -2.163249,0.90642 -5.614731,1.64809 -7.669915,1.64809 -4.577618,0 -4.93389,2.0727 -1.027779,5.97881 1.489913,1.48991 2.447677,2.97015 2.12841,3.28942 -0.319267,0.31927 -8.917221,0.80982 -19.106624,1.0901 -15.974107,0.43943 -18.526152,0.29126 -18.526152,-1.0743 0,-0.87117 1.638306,-6.52989 3.640727,-12.57495 16.337997,-49.32289 43.437649,-74.00232 95.743558,-87.19287 10.8055,-2.72495 23.52528,-3.12994 34.31714,-1.09264 9.38683,1.77206 20.6353,5.68044 26.51377,9.21244 2.84017,1.70648 2.9333,1.93567 1.05791,2.60332 -6.52018,2.32119 -9.01882,9.85217 -4.70125,14.16974 2.40137,2.40135 4.57818,2.62257 9.3698,0.9522 3.22702,-1.12494 3.90264,-2.31435 4.61593,-8.1259 0.29163,-2.37459 0.4404,-2.34055 9.33981,2.13482 10.84911,5.45585 17.6471,10.83812 23.6631,18.73513 6.30551,8.27699 6.85028,9.63531 2.09552,5.22505 -7.23411,-6.70999 -12.13092,-9.40004 -17.1113,-9.40004 -7.91267,0 -12.41721,6.86061 -7.64071,11.6371 2.44472,2.44474 4.29192,2.61355 9.1956,0.84036 3.47769,-1.25757 3.61776,-1.18695 9.96714,5.02511 8.49658,8.3128 13.99828,15.79164 18.44931,25.07939 3.52969,7.36521 5.07057,13.35709 2.26213,8.7965 -2.44436,-3.96933 -9.64904,-11.35825 -12.52539,-12.84566 -1.60142,-0.82812 -4.04245,-1.50567 -5.42456,-1.50567 -3.07732,0 -7.11338,4.07657 -7.11338,7.18474 0,3.17568 4.51145,5.93037 8.4291,5.14684 2.56306,-0.51262 3.47385,-0.11389 5.14158,2.25056 6.5595,9.30008 10.77749,22.77487 10.66867,34.08211 -0.0855,8.89359 -1.54458,11.28966 -2.31702,3.80518 -1.49999,-14.53345 -12.01116,-25.47632 -18.05565,-18.79721 -3.87732,4.28434 -0.6808,10.76034 5.31126,10.76034 2.88009,0 4.37108,4.35301 5.29143,15.44831 0.69119,8.33279 -1.54092,20.78096 -5.08049,28.33314 -1.12233,2.39462 -1.73711,3.40171 -1.3662,2.23797 2.42971,-7.62298 1.6153,-17.33893 -1.7342,-20.68839 -2.70122,-2.70123 -7.98186,-2.70713 -9.42503,-0.0112 -1.81877,3.39835 -1.30126,7.2902 1.14335,8.59852 1.9932,1.06672 2.16019,1.78801 1.52416,6.5828 -0.98207,7.40334 -4.95167,15.32086 -12.34753,24.62778 -3.4383,4.32672 -6.48833,7.86674 -6.77784,7.86674 -0.28939,0 0.77263,-2.48435 2.36034,-5.52078 1.99693,-3.81911 2.89681,-7.15196 2.91944,-10.81274 0.0299,-4.7017 -0.2823,-5.44472 -2.79054,-6.66174 -2.1966,-1.06579 -3.42493,-1.0957 -5.53374,-0.1348 -3.62329,1.65085 -4.24293,4.16395 -2.12288,8.60972 1.72072,3.60835 1.69405,3.80454 -1.25272,9.21871 -4.59308,8.43896 -14.92102,16.04842 -28.08617,20.69332 l -4.54621,1.60399 4.38736,-3.75536 c 5.48542,-4.69532 8.76905,-9.91782 8.76905,-13.94693 0,-4.01369 -1.71762,-5.64076 -5.95457,-5.64076 -4.72056,0 -7.08415,2.59682 -6.27746,6.89692 0.5634,3.00316 0.1277,3.8582 -3.75302,7.36416 -7.35539,6.64513 -22.96157,12.24305 -33.73712,12.10146 -3.27411,-0.043 -2.88128,-0.32338 3.39357,-2.42203 z M 103.32163,359.12836 c 2.44518,-3.51414 3.04435,-7.82754 1.43928,-10.36061 -1.3429,-2.11936 -5.202523,0.74044 -10.91296,8.08598 -5.412043,6.9617 -11.420202,15.66763 -11.420202,16.54814 0,1.57438 18.805992,-11.27281 20.893882,-14.27351 z"
       id="path1"
       inkscape:label="wytchblade" /></g><g
     inkscape:groupmode="layer"
     id="layer2"
     inkscape:label="hex"><path
       id="path4"
       style="fill:#ff6000;fill-opacity:0.5;stroke-width:0.701575"
       d="m 119.93377,332.53775 c -3.18543,1.52034 -6.50693,2.88 -9.24109,5.16986 -1.72157,1.32979 -3.17165,2.97081 -4.3271,4.81101 -7.496823,11.38072 -14.492653,23.08034 -21.543716,34.74004 -5.128485,8.49637 -10.260518,16.9935 -15.477244,25.43404 -2.109163,3.98547 -3.009236,8.54624 -3.032493,13.03212 0.03956,3.1317 0.703624,6.24966 1.779844,9.18402 1.564643,3.11327 3.453353,6.05515 5.183681,9.07894 9.766037,16.53481 19.619899,33.01704 29.603568,49.42098 1.60112,2.58095 3.08409,5.26928 5.2012,7.47805 2.6393,3.01926 6.15653,5.06296 9.74266,6.75666 1.10598,0.51499 2.18211,1.1573 3.30639,1.59463 26.35275,-0.26483 52.70545,-0.53524 79.05821,-0.79996 2.80263,-1.4299 5.70027,-2.73994 8.16197,-4.73585 1.56467,-1.16094 2.98256,-2.52706 4.02434,-4.18456 5.23089,-7.65248 10.11036,-15.53711 14.99732,-23.41087 3.15789,-5.1569 6.33272,-10.31015 9.17202,-15.65127 2.08578,-3.52317 4.37652,-6.92104 6.39876,-10.48353 2.93036,-5.05074 5.87319,-10.10396 8.4822,-15.33007 1.26759,-2.71972 1.37896,-5.79753 1.47738,-8.7476 -0.001,-3.37123 -0.12583,-6.91183 -1.76883,-9.94534 -2.94814,-6.03538 -6.52364,-11.73296 -9.79329,-17.59423 -4.80874,-8.24059 -9.81893,-16.36218 -14.67003,-24.57814 -4.34582,-7.20717 -8.48586,-14.57249 -13.553,-21.31006 -2.7669,-3.62479 -6.10529,-7.11279 -10.52113,-8.6319 -3.54243,-1.33197 -7.39676,-1.17675 -11.1179,-1.34408 -13.01596,-0.21517 -26.0347,-0.11487 -39.05192,-0.1443 -10.69518,0 -21.39037,0 -32.08555,0 -0.13542,0.0638 -0.27084,0.1276 -0.40625,0.19141 z"
       inkscape:label="fill"
       transform="translate(-31.689627,-287.34048)" /><path
       style="fill:#ff6000;stroke-width:0.396264;fill-opacity:1"
       d="m 271.25081,423.21758 c -1.19926,6.60173 -2.54517,9.7598 -8.01336,18.80258 -2.17456,3.5961 -10.60797,17.68328 -18.74091,31.30485 -8.13293,13.62159 -15.64071,25.92559 -16.68394,27.34224 -5.56216,7.55306 -13.53389,12.79625 -23.54577,15.48661 l -3.56638,0.95835 h -40.81521 c -38.39192,0 -41.00342,-0.0438 -43.98532,-0.73712 -9.18932,-2.13666 -17.876828,-7.57519 -23.594915,-14.77078 -2.844539,-3.57956 -5.23773,-7.58178 -4.879871,-8.16079 0.145392,-0.23527 0.09306,-0.32188 -0.116304,-0.19248 -0.394224,0.24364 -10.573016,-16.51347 -10.573016,-17.40613 0,-0.27704 -0.106845,-0.43767 -0.237442,-0.35696 -0.304675,0.18831 -4.517728,-6.88067 -4.517728,-7.58017 0,-0.28969 -0.08588,-0.44084 -0.190853,-0.33587 -0.229393,0.2294 -0.542319,-0.27839 -10.862345,-17.62647 -8.914909,-14.98606 -9.648817,-16.33426 -11.109185,-20.4076 -1.892456,-5.27855 -2.390816,-8.889 -2.160547,-15.65243 0.321509,-9.4434 1.639253,-13.32247 8.444265,-24.85757 8.063311,-13.66804 33.229089,-55.49483 34.635049,-57.5652 6.085886,-8.96184 16.445732,-15.38692 27.771702,-17.22372 5.38674,-0.87361 76.26153,-0.90201 81.99359,-0.0329 5.06435,0.76791 8.57521,1.90002 13.07671,4.2167 6.39927,3.2934 11.72034,7.90905 15.36979,13.33221 3.53457,5.25242 15.173,25.09479 14.94019,25.47151 -0.13905,0.22498 -0.0758,0.36005 0.14047,0.30017 0.56263,-0.15576 8.87353,13.88234 8.53907,14.42352 -0.16172,0.26166 -0.10241,0.34138 0.14169,0.19051 0.43111,-0.26643 2.60861,3.06056 2.60861,3.98569 0,0.28061 0.0914,0.41882 0.20307,0.30713 0.11174,-0.11173 0.85659,0.91364 1.65532,2.27852 0.79874,1.36488 3.19246,5.42386 5.31939,9.01995 6.23551,10.54269 7.62925,13.75363 8.75159,20.16231 0.69968,3.99516 0.70095,11.47896 0.002,15.32329 z m -20.00018,-11.96621 c -0.61995,-3.26902 -1.86118,-6.04292 -5.20471,-11.63148 -1.7603,-2.94225 -3.23225,-5.52364 -3.27102,-5.7364 -0.0388,-0.21274 -0.28017,-0.61351 -0.5365,-0.8906 -1.14663,-1.23948 -3.32308,-5.29679 -3.06517,-5.71408 0.15755,-0.25489 0.11438,-0.35615 -0.0962,-0.22597 -0.50527,0.31228 -10.14963,-15.86825 -9.79766,-16.43772 0.14997,-0.24268 0.1008,-0.33498 -0.10932,-0.20512 -0.39601,0.24474 -8.19407,-12.54798 -8.19407,-13.44238 0,-0.27811 -0.10506,-0.44069 -0.23357,-0.3613 -0.12847,0.0794 -2.10483,-2.9968 -4.39193,-6.83599 -5.03574,-8.45316 -7.80567,-11.52539 -12.32581,-13.67104 -1.61037,-0.76441 -3.88641,-1.58836 -5.05788,-1.83099 -1.47242,-0.30495 -13.65873,-0.44725 -39.47515,-0.46093 -33.96219,-0.0181 -37.55635,0.0411 -39.67593,0.6519 -3.81013,1.09809 -6.75675,2.81518 -9.67293,5.63673 -2.55119,2.46842 -4.08665,4.89275 -21.319882,33.66202 -10.213866,17.05111 -18.669179,30.90351 -18.789572,30.78312 -0.120397,-0.1204 -0.197811,0.0159 -0.172038,0.30284 0.02575,0.28696 -0.458161,2.07977 -1.075417,3.98401 -1.012466,3.12349 -1.104598,3.86021 -0.941564,7.52902 0.204854,4.60987 0.823913,6.70961 3.185073,10.80325 1.614998,2.79998 30.18613,50.74112 34.31881,57.5855 3.71985,6.16065 7.86155,9.67005 13.72186,11.62697 l 2.77386,0.92626 38.0373,-0.10932 c 25.03933,-0.0719 38.58032,-0.25209 39.6264,-0.52705 3.59267,-0.9443 7.39896,-3.16406 10.06475,-5.86958 2.24151,-2.27491 4.18765,-5.29926 13.47885,-20.9464 6.00155,-10.10709 11.0365,-18.17795 11.2557,-18.04248 0.22234,0.13742 0.27379,0.0464 0.11708,-0.20714 -0.35618,-0.57631 4.13941,-8.02634 4.65213,-7.70946 0.21041,0.13003 0.26377,0.0443 0.1186,-0.19067 -0.14518,-0.23489 1.9036,-4.05173 4.55284,-8.48182 5.27971,-8.82882 6.59295,-11.41076 7.32164,-14.39499 0.59278,-2.42758 0.6785,-6.94777 0.18146,-9.56865 z"
       id="path3"
       inkscape:label="outline"
       transform="translate(-31.689627,-287.34048)" /><path
       style="fill:#2b2b2b;fill-opacity:1"
       d="m 113.73532,156.9759 c -7.80748,-2.05047 -18.599873,-7.59545 -24.859463,-12.77245 -6.37345,-5.27116 -14.14054,-14.47913 -14.14054,-16.76375 0,-2.6552 7.63275,-11.44213 14.27906,-16.43825 12.443333,-9.35382 24.421503,-13.458909 39.200843,-13.434689 18.27448,0.0299 32.26059,5.690489 44.72436,18.101109 9.67529,9.63404 10.15956,11.25826 5.32172,17.84872 -8.19623,11.16549 -21.45917,20.08187 -34.98608,23.52035 -7.42367,1.88707 -22.23873,1.85645 -29.5399,-0.061 z m 23.35485,-6.79883 c 4.8807,-2.03929 10.71502,-7.57064 12.78017,-12.11652 2.39975,-5.2824 2.39975,-14.73475 0,-20.01715 -2.06515,-4.54588 -7.89947,-10.07723 -12.78017,-12.11652 -4.22769,-1.76644 -13.482,-1.76644 -17.70969,0 -4.88071,2.03929 -10.71503,7.57064 -12.78018,12.11652 -2.18818,4.8167 -2.43235,14.21491 -0.49007,18.86342 2.03929,4.88071 7.57064,10.71503 12.11651,12.78017 4.81671,2.18819 14.21492,2.43235 18.86343,0.49008 z m -14.35485,-11.32724 c -9.68389,-4.97435 -8.45354,-19.28404 1.92542,-22.39366 10.10118,-3.02638 19.0043,7.11963 14.52695,16.55494 -3.13144,6.59901 -10.13418,9.08419 -16.45237,5.83872 z"
       id="path2" /></g></svg>
